<svg width="16" height="16" viewBox="0 0 16 16" fill="none" xmlns="http://www.w3.org/2000/svg">
<g clip-path="url(#clip0_509_4340)">
<path d="M9.22137 11.046C9.35906 11.1092 9.51418 11.1237 9.66117 11.0869C9.80816 11.0502 9.93826 10.9645 10.03 10.844L10.2667 10.534C10.3909 10.3684 10.5519 10.234 10.7371 10.1414C10.9222 10.0488 11.1264 10.0007 11.3334 10.0007H13.3334C13.687 10.0007 14.0261 10.1411 14.2762 10.3912C14.5262 10.6412 14.6667 10.9804 14.6667 11.334V13.334C14.6667 13.6876 14.5262 14.0267 14.2762 14.2768C14.0261 14.5268 13.687 14.6673 13.3334 14.6673C10.1508 14.6673 7.09853 13.403 4.84809 11.1526C2.59766 8.90216 1.33337 5.84992 1.33337 2.66732C1.33337 2.3137 1.47385 1.97456 1.7239 1.72451C1.97395 1.47446 2.31309 1.33398 2.66671 1.33398H4.66671C5.02033 1.33398 5.35947 1.47446 5.60952 1.72451C5.85956 1.97456 6.00004 2.3137 6.00004 2.66732V4.66732C6.00004 4.87431 5.95185 5.07846 5.85928 5.2636C5.76671 5.44874 5.6323 5.60979 5.46671 5.73398L5.15471 5.96798C5.03232 6.06144 4.94605 6.19437 4.91057 6.34422C4.87508 6.49406 4.89256 6.65157 4.96004 6.78998C5.87116 8.64056 7.36966 10.1372 9.22137 11.046Z" stroke="#B2B2B2" stroke-width="1.5" stroke-linecap="round" stroke-linejoin="round"/>
</g>
<defs>
<clipPath id="clip0_509_4340">
<rect width="16" height="16" fill="white"/>
</clipPath>
</defs>
</svg>
