<svg width="20" height="23" viewBox="0 0 20 23" fill="none" xmlns="http://www.w3.org/2000/svg">
<g filter="url(#filter0_d_509_4389)">
<path d="M14.6667 14V12.6667C14.6667 11.9594 14.3857 11.2811 13.8856 10.781C13.3855 10.281 12.7073 10 12 10H8.00001C7.29277 10 6.61449 10.281 6.11439 10.781C5.61429 11.2811 5.33334 11.9594 5.33334 12.6667V14M12.6667 4.66667C12.6667 6.13943 11.4728 7.33333 10 7.33333C8.52725 7.33333 7.33334 6.13943 7.33334 4.66667C7.33334 3.19391 8.52725 2 10 2C11.4728 2 12.6667 3.19391 12.6667 4.66667Z" stroke="#B2B2B2" stroke-width="1.5" stroke-linecap="round" stroke-linejoin="round"/>
</g>
<defs>
<filter id="filter0_d_509_4389" x="-2" y="0" width="24" height="24" filterUnits="userSpaceOnUse" color-interpolation-filters="sRGB">
<feFlood flood-opacity="0" result="BackgroundImageFix"/>
<feColorMatrix in="SourceAlpha" type="matrix" values="0 0 0 0 0 0 0 0 0 0 0 0 0 0 0 0 0 0 127 0" result="hardAlpha"/>
<feOffset dy="4"/>
<feGaussianBlur stdDeviation="2"/>
<feComposite in2="hardAlpha" operator="out"/>
<feColorMatrix type="matrix" values="0 0 0 0 0 0 0 0 0 0 0 0 0 0 0 0 0 0 0.25 0"/>
<feBlend mode="normal" in2="BackgroundImageFix" result="effect1_dropShadow_509_4389"/>
<feBlend mode="normal" in="SourceGraphic" in2="effect1_dropShadow_509_4389" result="shape"/>
</filter>
</defs>
</svg>
